Coordinates
version=1
nRows=13
nColumns=22
inDegrees=yes

Units are S.I. units (second, meters, Newtons, ...)
If the header above contains a line with 'inDegrees', this indicates whether rotational values are in degrees (yes) or radians (no).

endheader
time	pelvis_tilt	pelvis_list	pelvis_rotation	pelvis_tx	pelvis_ty	pelvis_tz	hip_flexion_r	hip_adduction_r	hip_rotation_r	knee_angle_r	ankle_angle_r	subtalar_angle_r	hip_flexion_l	hip_adduction_l	hip_rotation_l	knee_angle_l	ankle_angle_l	subtalar_angle_l	lumbar_extension	lumbar_bending	lumbar_rotation
      4.68000000	    -10.20784881	     -5.70349063	    -23.89297964	      0.70964039	      0.96713126	      0.21999858	      6.39389878	     13.98541871	      1.99926920	    -19.54275948	     22.32171880	     -8.65289016	     37.27570729	    -10.16949004	      1.09430637	    -20.47280468	      9.23916122	      8.93702363	     -1.00360504	     10.85755216	      7.90645546
      4.69000000	    -10.31081631	     -5.69950299	    -23.97766560	      0.71620961	      0.96629744	      0.22121390	      6.18473174	     13.92818262	      2.02632932	    -19.77484685	     22.53708704	     -8.58185153	     37.15721924	    -10.12758665	      1.13032654	    -20.42121677	      9.02546173	      8.88886265	     -0.82982105	     10.85148702	      7.82642776
      4.70000000	    -10.39659322	     -5.63292799	    -24.05229513	      0.72289803	      0.96552803	      0.22233077	      6.02232055	     13.78311893	      1.99556967	    -20.08295401	     22.75587406	     -8.15284426	     37.03311361	    -10.02000595	      1.10103799	    -20.47619388	      8.62462306	      8.55467856	     -0.63582088	     10.78078513	      7.72393505
      4.71000000	    -10.48063714	     -5.54661811	    -24.10427761	      0.72962918	      0.96481325	      0.22338709	      5.86878689	     13.62128667	      2.00079242	    -20.39007488	     22.92389976	     -7.91041883	     36.95889587	     -9.88692325	      1.05640767	    -20.70148696	      8.01825255	      8.26566947	     -0.43189493	     10.68283019	      7.60353386
      4.72000000	    -10.55148930	     -5.43633858	    -24.13418435	      0.73642258	      0.96420452	      0.22436423	      5.72743246	     13.42958915	      2.02927892	    -20.72222517	     23.05799595	     -7.63193610	     36.90848447	     -9.72425167	      0.97306672	    -21.04211486	      7.26707770	      7.89164568	     -0.22761451	     10.55528355	      7.45823867
      4.73000000	    -10.58439981	     -5.28733594	    -24.13049845	      0.74328431	      0.96375043	      0.22523896	      5.58893817	     13.18428869	      2.07969079	    -21.09444517	     23.14458788	     -7.38325090	     36.85983650	     -9.50568672	      0.84756871	    -21.46798756	      6.46421361	      7.54287006	     -0.04358282	     10.37225371	      7.26790164
      4.74000000	    -10.59496532	     -5.14143167	    -24.09030049	      0.75020925	      0.96346187	      0.22601212	      5.43157863	     12.92919299	      2.13295912	    -21.46346096	     23.20566005	     -6.97456024	     36.83722299	     -9.26949637	      0.71385306	    -21.99968558	      5.70073628	      7.03535902	      0.11603121	     10.17789289	      7.09342074
      4.75000000	    -10.55094790	     -4.94487260	    -24.00079051	      0.75722289	      0.96337236	      0.22667343	      5.26428545	     12.59718970	      2.16671349	    -21.86485813	     23.22935595	     -6.64097121	     36.79342593	     -8.94983115	      0.55898667	    -22.56846971	      5.08487679	      6.66408667	      0.24683287	      9.90369464	      6.87513799
      4.76000000	    -10.47834918	     -4.73573799	    -23.87751193	      0.76422577	      0.96348241	      0.22722234	      5.11181604	     12.24205561	      2.21007204	    -22.31840431	     23.17316389	     -6.30485240	     36.72761887	     -8.58339452	      0.47261587	    -23.13891812	      4.60495571	      6.34831167	      0.33951668	      9.60370064	      6.64337861
      4.77000000	    -10.38775056	     -4.53521582	    -23.72441353	      0.77128158	      0.96375877	      0.22771364	      4.94248450	     11.87759946	      2.21510158	    -22.76912958	     23.11072254	     -5.70215676	     36.66456734	     -8.20258639	      0.39875051	    -23.75926573	      4.35215179	      5.88000776	      0.41068487	      9.29938424	      6.42415794
      4.78000000	    -10.29578473	     -4.31089106	    -23.55175552	      0.77828931	      0.96416761	      0.22813127	      4.83550387	     11.48444621	      2.18524796	    -23.29931331	     22.95862818	     -5.16139760	     36.58773550	     -7.77847201	      0.39024767	    -24.34160152	      4.24582381	      5.54844024	      0.47709252	      8.96837847	      6.20991893
      4.79000000	    -10.21675722	     -4.08238670	    -23.37978021	      0.78523450	      0.96467616	      0.22852131	      4.79420767	     11.08687447	      2.12754886	    -23.90908233	     22.74783468	     -4.54151395	     36.49634183	     -7.34421310	      0.43872133	    -24.87527087	      4.29075108	      5.21936550	      0.54587166	      8.63510295	      6.03245857
      4.80000000	    -10.15063614	     -3.82858751	    -23.21226096	      0.79212631	      0.96525573	      0.22888932	      4.82923478	     10.66109400	      2.02175807	    -24.59956091	     22.49955481	     -4.04987156	     36.38670445	     -6.88603753	      0.51034066	    -25.34219146	      4.42253952	      4.97322990	      0.63040195	      8.28059241	      5.87024572
